<svg width="288" height="242" viewBox="0 0 288 242" fill="none" xmlns="http://www.w3.org/2000/svg">
<g clip-path="url(#clip0_92_2267)">
<path d="M176.293 141.283C176.345 142.145 176.36 143.012 176.34 143.885C175.848 164.369 155.039 181.426 125.963 188.012C121.764 188.781 117.651 189.476 113.647 190.101C107.958 190.767 102.053 191.044 95.997 190.9C52.271 189.847 17.358 167.086 18.009 140.053C18.142 134.808 19.588 129.793 22.179 125.112C32.736 106.021 62.087 92.6404 96.563 93.0074C97.158 93.0134 97.754 93.0244 98.353 93.0384C105.526 93.2094 112.462 93.9694 119.044 95.2404C126.062 96.5854 132.669 98.5054 138.732 100.913C160.543 109.561 175.276 124.473 176.293 141.283ZM306 138.726H305.993V138.733H306V138.726Z" fill="#B3E3FA"/>
<path d="M287.983 87.0954C287.736 83.6614 284.636 82.2403 280.989 82.2383C277.949 82.2373 274.528 83.2224 272.061 84.8524C262.388 91.2514 254.248 103.015 251.735 114.341L173.24 113.339C173.24 113.339 171.339 110.351 159.71 104.02C151.112 98.7604 141.467 95.3883 131.618 93.4053C130.637 93.2093 129.315 92.8484 127.82 92.4494L126.449 70.6623C126.309 68.4543 123.708 66.8293 120.649 67.0143L117.792 67.2033C114.718 67.3953 112.352 69.3323 112.488 71.5383C112.488 71.5383 114.529 108.219 114.011 112.501C113.011 120.746 109.959 128.842 104.939 135.489C95.7954 147.564 81.7394 152.361 66.9834 151.429C52.8784 150.543 34.9064 147.632 26.1854 135.135L26.1604 135.092C25.5664 134.174 24.9064 133.708 24.2444 133.563C22.3004 133.131 20.2774 135.463 19.5704 137.573C17.9544 142.387 17.3204 147.547 17.8594 152.61L17.8584 152.621C19.6234 169.242 32.7484 180.75 47.2544 187.571L43.8174 203.56C31.3344 200.866 16.7934 194.15 12.3134 181.119C10.6794 176.314 13.7834 165.986 6.67537 164.952C1.07237 164.148 -0.0716281 169.599 0.00337186 174.433C0.0313719 176.233 0.228372 177.947 0.427372 179.221C5.54337 211.958 46.0394 216.792 72.4014 216.675C103.75 216.518 135.813 214.375 166.598 208.244C173.217 206.922 202.801 202.04 198.852 190.577C196.304 183.22 190.144 188.881 186.371 190.837C179.696 194.275 171.908 195.829 164.597 197.294L162.471 176.035L161.483 174.745C172.294 166.342 177.198 158.373 177.198 158.373L245.624 141.856L245.623 141.867C249.579 156.645 259.719 163.78 267.882 164.196C274.231 164.519 279.384 160.778 279.502 153.408C279.524 152.027 279.37 150.519 279.014 148.887C275.033 130.6 280.412 108.423 287.197 91.2204C287.831 89.6074 288.065 88.2394 287.983 87.0954ZM149.378 199.884C133.019 202.278 116.513 203.729 100.002 204.655C84.0004 205.545 67.4944 206.541 51.5194 204.792L54.5714 190.587C76.4434 198.42 100.934 198.311 123.302 192.666L123.421 192.637C127.338 191.479 131.348 190.251 135.446 188.938L135.569 188.885C141.875 186.562 148.589 183.37 154.903 179.369L156.924 198.699C154.472 199.112 151.965 199.515 149.378 199.884ZM164.404 142.438C159.91 160.426 133.019 168.311 109.083 159.768C119.761 155.301 132.342 128.515 128.786 112.102C145.532 112.791 168.913 124.456 164.404 142.438Z" fill="#446294"/>
<path d="M248.618 80.3077C239.837 95.4362 219.775 75.0532 212.533 62.4832C209.13 64.4756 204.866 64.4623 201.366 62.0511C197.865 59.6375 196.025 55.4474 196.22 51.2442C182.704 49.51 157.2 38.5014 165.98 23.3717C168.177 19.5872 171.079 18.022 174.309 18.0002C183.997 17.9351 196.637 31.7579 202.057 41.189C205.46 39.1942 209.724 39.2087 213.225 41.6211C216.724 44.0323 218.565 48.2223 218.37 52.4268C231.904 54.1586 257.406 65.1672 248.618 80.3077ZM125.858 73.5001C125.013 71.4449 124.464 70.3697 122.747 69.111C139.656 64.6651 171.701 42.0144 140.647 27.5075C135.396 25.054 130.992 24.0644 127.327 24.1863C108.364 24.8151 109.157 55.1808 114.533 66.4668C111.302 66.8506 108.435 68.7405 106.641 71.5632C94.9595 63.9386 7.53555 50.4502 6.01919 68.2855C6.00257 68.4762 5.99703 68.6656 6.00146 68.8539C6.41794 86.192 94.3381 89.9513 106.965 84.8622C107.126 85.2496 54.8739 124.928 86.1692 139.412C89.9009 141.14 93.2814 141.945 96.3252 141.997C117.633 142.359 122.396 105.807 115.133 90.5004C119.097 90.7406 122.725 88.6926 124.851 85.3474C136.546 92.9611 218.186 105.952 219.701 88.129C221.218 70.2901 138.64 68.3459 125.858 73.5001ZM325 82.1662H324.992V82.1747H325V82.1662Z" fill="#9D9FA1"/>
</g>
<defs>
<clipPath id="clip0_92_2267">
<rect width="288" height="242" fill="white"/>
</clipPath>
</defs>
</svg>
